{"nbformat":4,"nbformat_minor":0,"metadata":{"colab":{"provenance":[],"gpuType":"T4","authorship_tag":"ABX9TyO6sYuagpwkkvFlTc4geYc5"},"kernelspec":{"name":"python3","display_name":"Python 3"},"language_info":{"name":"python"},"accelerator":"GPU"},"cells":[{"cell_type":"code","source":["from google.colab import drive\n","import os\n","drive.mount('/content/drive')"],"metadata":{"colab":{"base_uri":"https://localhost:8080/"},"id":"IbuL4t5dEyoQ","executionInfo":{"status":"ok","timestamp":1713727472732,"user_tz":420,"elapsed":15809,"user":{"displayName":"Yaqi Hu","userId":"16505542820787683035"}},"outputId":"c3f07121-0ca6-4dbb-e7f4-c7a580b5ef6f"},"execution_count":1,"outputs":[{"output_type":"stream","name":"stdout","text":["Mounted at /content/drive\n"]}]},{"cell_type":"code","source":["os.chdir('/content/drive/MyDrive/USC_Course/Multimodal_Probabilistic_Learning_of_Human_CSCI535/Group_Project/emotalkingface-main')"],"metadata":{"id":"ruH4Hrg8L9Qh","executionInfo":{"status":"ok","timestamp":1713727477582,"user_tz":420,"elapsed":957,"user":{"displayName":"Yaqi Hu","userId":"16505542820787683035"}}},"execution_count":2,"outputs":[]},{"cell_type":"code","source":["!pip install visdom"],"metadata":{"colab":{"base_uri":"https://localhost:8080/"},"id":"0BdXZqSqMJ0g","executionInfo":{"status":"ok","timestamp":1713727493305,"user_tz":420,"elapsed":15724,"user":{"displayName":"Yaqi Hu","userId":"16505542820787683035"}},"outputId":"f65680c0-0832-4a03-fbc7-4101ac8cb781"},"execution_count":3,"outputs":[{"output_type":"stream","name":"stdout","text":["Collecting visdom\n","  Downloading visdom-0.2.4.tar.gz (1.4 MB)\n","\u001b[2K     \u001b[90m━━━━━━━━━━━━━━━━━━━━━━━━━━━━━━━━━━━━━━━━\u001b[0m \u001b[32m1.4/1.4 MB\u001b[0m \u001b[31m6.7 MB/s\u001b[0m eta \u001b[36m0:00:00\u001b[0m\n","\u001b[?25h  Preparing metadata (setup.py) ... \u001b[?25l\u001b[?25hdone\n","Requirement already satisfied: numpy>=1.8 in /usr/local/lib/python3.10/dist-packages (from visdom) (1.25.2)\n","Requirement already satisfied: scipy in /usr/local/lib/python3.10/dist-packages (from visdom) (1.11.4)\n","Requirement already satisfied: requests in /usr/local/lib/python3.10/dist-packages (from visdom) (2.31.0)\n","Requirement already satisfied: tornado in /usr/local/lib/python3.10/dist-packages (from visdom) (6.3.3)\n","Requirement already satisfied: six in /usr/local/lib/python3.10/dist-packages (from visdom) (1.16.0)\n","Collecting jsonpatch (from visdom)\n","  Downloading jsonpatch-1.33-py2.py3-none-any.whl (12 kB)\n","Requirement already satisfied: websocket-client in /usr/local/lib/python3.10/dist-packages (from visdom) (1.7.0)\n","Requirement already satisfied: networkx in /usr/local/lib/python3.10/dist-packages (from visdom) (3.3)\n","Requirement already satisfied: pillow in /usr/local/lib/python3.10/dist-packages (from visdom) (9.4.0)\n","Collecting jsonpointer>=1.9 (from jsonpatch->visdom)\n","  Downloading jsonpointer-2.4-py2.py3-none-any.whl (7.8 kB)\n","Requirement already satisfied: charset-normalizer<4,>=2 in /usr/local/lib/python3.10/dist-packages (from requests->visdom) (3.3.2)\n","Requirement already satisfied: idna<4,>=2.5 in /usr/local/lib/python3.10/dist-packages (from requests->visdom) (3.7)\n","Requirement already satisfied: urllib3<3,>=1.21.1 in /usr/local/lib/python3.10/dist-packages (from requests->visdom) (2.0.7)\n","Requirement already satisfied: certifi>=2017.4.17 in /usr/local/lib/python3.10/dist-packages (from requests->visdom) (2024.2.2)\n","Building wheels for collected packages: visdom\n","  Building wheel for visdom (setup.py) ... \u001b[?25l\u001b[?25hdone\n","  Created wheel for visdom: filename=visdom-0.2.4-py3-none-any.whl size=1408195 sha256=2d83f7b482b552b82fc6e99b3d285b50124f50e2eb0c004997290b7088075ae1\n","  Stored in directory: /root/.cache/pip/wheels/42/29/49/5bed207bac4578e4d2c0c5fc0226bfd33a7e2953ea56356855\n","Successfully built visdom\n","Installing collected packages: jsonpointer, jsonpatch, visdom\n","Successfully installed jsonpatch-1.33 jsonpointer-2.4 visdom-0.2.4\n"]}]},{"cell_type":"markdown","source":["Generate Examples"],"metadata":{"id":"SUtO6sqIIm9x"}},{"cell_type":"code","source":["!python generate.py -im ./data/image_samples/img01.png -is ./data/speech_samples/speech01.wav -m ./model/ -o ./results/"],"metadata":{"id":"ITS6A2DeE3jf","colab":{"base_uri":"https://localhost:8080/"},"executionInfo":{"status":"ok","timestamp":1713578063376,"user_tz":420,"elapsed":110619,"user":{"displayName":"Yaqi Hu","userId":"16505542820787683035"}},"outputId":"08b8a935-73dc-4e64-ac73-6514ae6cdb34"},"execution_count":null,"outputs":[{"output_type":"stream","name":"stdout","text":["tensor([[1., 0., 0., 0., 0., 0.]])\n","(63, 128, 128, 3) True\n","ffmpeg version 4.4.2-0ubuntu0.22.04.1 Copyright (c) 2000-2021 the FFmpeg developers\n","  built with gcc 11 (Ubuntu 11.2.0-19ubuntu1)\n","  configuration: --prefix=/usr --extra-version=0ubuntu0.22.04.1 --toolchain=hardened --libdir=/usr/lib/x86_64-linux-gnu --incdir=/usr/include/x86_64-linux-gnu --arch=amd64 --enable-gpl --disable-stripping --enable-gnutls --enable-ladspa --enable-libaom --enable-libass --enable-libbluray --enable-libbs2b --enable-libcaca --enable-libcdio --enable-libcodec2 --enable-libdav1d --enable-libflite --enable-libfontconfig --enable-libfreetype --enable-libfribidi --enable-libgme --enable-libgsm --enable-libjack --enable-libmp3lame --enable-libmysofa --enable-libopenjpeg --enable-libopenmpt --enable-libopus --enable-libpulse --enable-librabbitmq --enable-librubberband --enable-libshine --enable-libsnappy --enable-libsoxr --enable-libspeex --enable-libsrt --enable-libssh --enable-libtheora --enable-libtwolame --enable-libvidstab --enable-libvorbis --enable-libvpx --enable-libwebp --enable-libx265 --enable-libxml2 --enable-libxvid --enable-libzimg --enable-libzmq --enable-libzvbi --enable-lv2 --enable-omx --enable-openal --enable-opencl --enable-opengl --enable-sdl2 --enable-pocketsphinx --enable-librsvg --enable-libmfx --enable-libdc1394 --enable-libdrm --enable-libiec61883 --enable-chromaprint --enable-frei0r --enable-libx264 --enable-shared\n","  libavutil      56. 70.100 / 56. 70.100\n","  libavcodec     58.134.100 / 58.134.100\n","  libavformat    58. 76.100 / 58. 76.100\n","  libavdevice    58. 13.100 / 58. 13.100\n","  libavfilter     7.110.100 /  7.110.100\n","  libswscale      5.  9.100 /  5.  9.100\n","  libswresample   3.  9.100 /  3.  9.100\n","  libpostproc    55.  9.100 / 55.  9.100\n","Input #0, mov,mp4,m4a,3gp,3g2,mj2, from './results/ANG_generated.mp4':\n","  Metadata:\n","    major_brand     : isom\n","    minor_version   : 512\n","    compatible_brands: isomiso2mp41\n","    encoder         : Lavf59.27.100\n","  Duration: 00:00:02.52, start: 0.000000, bitrate: 113 kb/s\n","  Stream #0:0(und): Video: mpeg4 (Simple Profile) (mp4v / 0x7634706D), yuv420p, 128x128 [SAR 1:1 DAR 1:1], 109 kb/s, 25 fps, 25 tbr, 12800 tbn, 25 tbc (default)\n","    Metadata:\n","      handler_name    : VideoHandler\n","      vendor_id       : [0][0][0][0]\n","\u001b[0;33mGuessed Channel Layout for Input Stream #1.0 : mono\n","\u001b[0mInput #1, wav, from './results/ANG_generated.mp4.wav':\n","  Duration: 00:00:02.50, bitrate: 128 kb/s\n","  Stream #1:0: Audio: pcm_s16le ([1][0][0][0] / 0x0001), 8000 Hz, mono, s16, 128 kb/s\n","Stream mapping:\n","  Stream #0:0 -> #0:0 (copy)\n","  Stream #1:0 -> #0:1 (pcm_s16le (native) -> aac (native))\n","Press [q] to stop, [?] for help\n","\u001b[1;36m[aac @ 0x58b757fbb400] \u001b[0m\u001b[0;33mToo many bits 8832.000000 > 6144 per frame requested, clamping to max\n","\u001b[0mOutput #0, mp4, to './results/ANG_generated.mp4_.mp4':\n","  Metadata:\n","    major_brand     : isom\n","    minor_version   : 512\n","    compatible_brands: isomiso2mp41\n","    encoder         : Lavf58.76.100\n","  Stream #0:0(und): Video: mpeg4 (Simple Profile) (mp4v / 0x7634706D), yuv420p, 128x128 [SAR 1:1 DAR 1:1], q=2-31, 109 kb/s, 25 fps, 25 tbr, 12800 tbn, 12800 tbc (default)\n","    Metadata:\n","      handler_name    : VideoHandler\n","      vendor_id       : [0][0][0][0]\n","  Stream #0:1: Audio: aac (LC) (mp4a / 0x6134706D), 8000 Hz, mono, fltp, 48 kb/s\n","    Metadata:\n","      encoder         : Lavc58.134.100 aac\n","frame=   63 fps=0.0 q=-1.0 Lsize=      50kB time=00:00:02.48 bitrate= 163.8kbits/s speed=66.4x    \n","video:34kB audio:14kB subtitle:0kB other streams:0kB global headers:0kB muxing overhead: 4.266765%\n","\u001b[1;36m[aac @ 0x58b757fbb400] \u001b[0mQavg: 707.192\n","Muxing Done\n","tensor([[0., 1., 0., 0., 0., 0.]])\n","(63, 128, 128, 3) True\n","ffmpeg version 4.4.2-0ubuntu0.22.04.1 Copyright (c) 2000-2021 the FFmpeg developers\n","  built with gcc 11 (Ubuntu 11.2.0-19ubuntu1)\n","  configuration: --prefix=/usr --extra-version=0ubuntu0.22.04.1 --toolchain=hardened --libdir=/usr/lib/x86_64-linux-gnu --incdir=/usr/include/x86_64-linux-gnu --arch=amd64 --enable-gpl --disable-stripping --enable-gnutls --enable-ladspa --enable-libaom --enable-libass --enable-libbluray --enable-libbs2b --enable-libcaca --enable-libcdio --enable-libcodec2 --enable-libdav1d --enable-libflite --enable-libfontconfig --enable-libfreetype --enable-libfribidi --enable-libgme --enable-libgsm --enable-libjack --enable-libmp3lame --enable-libmysofa --enable-libopenjpeg --enable-libopenmpt --enable-libopus --enable-libpulse --enable-librabbitmq --enable-librubberband --enable-libshine --enable-libsnappy --enable-libsoxr --enable-libspeex --enable-libsrt --enable-libssh --enable-libtheora --enable-libtwolame --enable-libvidstab --enable-libvorbis --enable-libvpx --enable-libwebp --enable-libx265 --enable-libxml2 --enable-libxvid --enable-libzimg --enable-libzmq --enable-libzvbi --enable-lv2 --enable-omx --enable-openal --enable-opencl --enable-opengl --enable-sdl2 --enable-pocketsphinx --enable-librsvg --enable-libmfx --enable-libdc1394 --enable-libdrm --enable-libiec61883 --enable-chromaprint --enable-frei0r --enable-libx264 --enable-shared\n","  libavutil      56. 70.100 / 56. 70.100\n","  libavcodec     58.134.100 / 58.134.100\n","  libavformat    58. 76.100 / 58. 76.100\n","  libavdevice    58. 13.100 / 58. 13.100\n","  libavfilter     7.110.100 /  7.110.100\n","  libswscale      5.  9.100 /  5.  9.100\n","  libswresample   3.  9.100 /  3.  9.100\n","  libpostproc    55.  9.100 / 55.  9.100\n","Input #0, mov,mp4,m4a,3gp,3g2,mj2, from './results/DIS_generated.mp4':\n","  Metadata:\n","    major_brand     : isom\n","    minor_version   : 512\n","    compatible_brands: isomiso2mp41\n","    encoder         : Lavf59.27.100\n","  Duration: 00:00:02.52, start: 0.000000, bitrate: 109 kb/s\n","  Stream #0:0(und): Video: mpeg4 (Simple Profile) (mp4v / 0x7634706D), yuv420p, 128x128 [SAR 1:1 DAR 1:1], 106 kb/s, 25 fps, 25 tbr, 12800 tbn, 25 tbc (default)\n","    Metadata:\n","      handler_name    : VideoHandler\n","      vendor_id       : [0][0][0][0]\n","\u001b[0;33mGuessed Channel Layout for Input Stream #1.0 : mono\n","\u001b[0mInput #1, wav, from './results/DIS_generated.mp4.wav':\n","  Duration: 00:00:02.50, bitrate: 128 kb/s\n","  Stream #1:0: Audio: pcm_s16le ([1][0][0][0] / 0x0001), 8000 Hz, mono, s16, 128 kb/s\n","Stream mapping:\n","  Stream #0:0 -> #0:0 (copy)\n","  Stream #1:0 -> #0:1 (pcm_s16le (native) -> aac (native))\n","Press [q] to stop, [?] for help\n","\u001b[1;36m[aac @ 0x56d044a0c400] \u001b[0m\u001b[0;33mToo many bits 8832.000000 > 6144 per frame requested, clamping to max\n","\u001b[0mOutput #0, mp4, to './results/DIS_generated.mp4_.mp4':\n","  Metadata:\n","    major_brand     : isom\n","    minor_version   : 512\n","    compatible_brands: isomiso2mp41\n","    encoder         : Lavf58.76.100\n","  Stream #0:0(und): Video: mpeg4 (Simple Profile) (mp4v / 0x7634706D), yuv420p, 128x128 [SAR 1:1 DAR 1:1], q=2-31, 106 kb/s, 25 fps, 25 tbr, 12800 tbn, 12800 tbc (default)\n","    Metadata:\n","      handler_name    : VideoHandler\n","      vendor_id       : [0][0][0][0]\n","  Stream #0:1: Audio: aac (LC) (mp4a / 0x6134706D), 8000 Hz, mono, fltp, 48 kb/s\n","    Metadata:\n","      encoder         : Lavc58.134.100 aac\n","frame=   63 fps=0.0 q=-1.0 Lsize=      49kB time=00:00:02.48 bitrate= 160.5kbits/s speed= 152x    \n","video:33kB audio:14kB subtitle:0kB other streams:0kB global headers:0kB muxing overhead: 4.357582%\n","\u001b[1;36m[aac @ 0x56d044a0c400] \u001b[0mQavg: 707.192\n","Muxing Done\n","tensor([[0., 0., 1., 0., 0., 0.]])\n","(63, 128, 128, 3) True\n","ffmpeg version 4.4.2-0ubuntu0.22.04.1 Copyright (c) 2000-2021 the FFmpeg developers\n","  built with gcc 11 (Ubuntu 11.2.0-19ubuntu1)\n","  configuration: --prefix=/usr --extra-version=0ubuntu0.22.04.1 --toolchain=hardened --libdir=/usr/lib/x86_64-linux-gnu --incdir=/usr/include/x86_64-linux-gnu --arch=amd64 --enable-gpl --disable-stripping --enable-gnutls --enable-ladspa --enable-libaom --enable-libass --enable-libbluray --enable-libbs2b --enable-libcaca --enable-libcdio --enable-libcodec2 --enable-libdav1d --enable-libflite --enable-libfontconfig --enable-libfreetype --enable-libfribidi --enable-libgme --enable-libgsm --enable-libjack --enable-libmp3lame --enable-libmysofa --enable-libopenjpeg --enable-libopenmpt --enable-libopus --enable-libpulse --enable-librabbitmq --enable-librubberband --enable-libshine --enable-libsnappy --enable-libsoxr --enable-libspeex --enable-libsrt --enable-libssh --enable-libtheora --enable-libtwolame --enable-libvidstab --enable-libvorbis --enable-libvpx --enable-libwebp --enable-libx265 --enable-libxml2 --enable-libxvid --enable-libzimg --enable-libzmq --enable-libzvbi --enable-lv2 --enable-omx --enable-openal --enable-opencl --enable-opengl --enable-sdl2 --enable-pocketsphinx --enable-librsvg --enable-libmfx --enable-libdc1394 --enable-libdrm --enable-libiec61883 --enable-chromaprint --enable-frei0r --enable-libx264 --enable-shared\n","  libavutil      56. 70.100 / 56. 70.100\n","  libavcodec     58.134.100 / 58.134.100\n","  libavformat    58. 76.100 / 58. 76.100\n","  libavdevice    58. 13.100 / 58. 13.100\n","  libavfilter     7.110.100 /  7.110.100\n","  libswscale      5.  9.100 /  5.  9.100\n","  libswresample   3.  9.100 /  3.  9.100\n","  libpostproc    55.  9.100 / 55.  9.100\n","Input #0, mov,mp4,m4a,3gp,3g2,mj2, from './results/FEA_generated.mp4':\n","  Metadata:\n","    major_brand     : isom\n","    minor_version   : 512\n","    compatible_brands: isomiso2mp41\n","    encoder         : Lavf59.27.100\n","  Duration: 00:00:02.52, start: 0.000000, bitrate: 109 kb/s\n","  Stream #0:0(und): Video: mpeg4 (Simple Profile) (mp4v / 0x7634706D), yuv420p, 128x128 [SAR 1:1 DAR 1:1], 105 kb/s, 25 fps, 25 tbr, 12800 tbn, 25 tbc (default)\n","    Metadata:\n","      handler_name    : VideoHandler\n","      vendor_id       : [0][0][0][0]\n","\u001b[0;33mGuessed Channel Layout for Input Stream #1.0 : mono\n","\u001b[0mInput #1, wav, from './results/FEA_generated.mp4.wav':\n","  Duration: 00:00:02.50, bitrate: 128 kb/s\n","  Stream #1:0: Audio: pcm_s16le ([1][0][0][0] / 0x0001), 8000 Hz, mono, s16, 128 kb/s\n","Stream mapping:\n","  Stream #0:0 -> #0:0 (copy)\n","  Stream #1:0 -> #0:1 (pcm_s16le (native) -> aac (native))\n","Press [q] to stop, [?] for help\n","\u001b[1;36m[aac @ 0x5b691dfe6400] \u001b[0m\u001b[0;33mToo many bits 8832.000000 > 6144 per frame requested, clamping to max\n","\u001b[0mOutput #0, mp4, to './results/FEA_generated.mp4_.mp4':\n","  Metadata:\n","    major_brand     : isom\n","    minor_version   : 512\n","    compatible_brands: isomiso2mp41\n","    encoder         : Lavf58.76.100\n","  Stream #0:0(und): Video: mpeg4 (Simple Profile) (mp4v / 0x7634706D), yuv420p, 128x128 [SAR 1:1 DAR 1:1], q=2-31, 105 kb/s, 25 fps, 25 tbr, 12800 tbn, 12800 tbc (default)\n","    Metadata:\n","      handler_name    : VideoHandler\n","      vendor_id       : [0][0][0][0]\n","  Stream #0:1: Audio: aac (LC) (mp4a / 0x6134706D), 8000 Hz, mono, fltp, 48 kb/s\n","    Metadata:\n","      encoder         : Lavc58.134.100 aac\n","frame=   63 fps=0.0 q=-1.0 Lsize=      48kB time=00:00:02.48 bitrate= 160.2kbits/s speed= 154x    \n","video:33kB audio:14kB subtitle:0kB other streams:0kB global headers:0kB muxing overhead: 4.367106%\n","\u001b[1;36m[aac @ 0x5b691dfe6400] \u001b[0mQavg: 707.192\n","Muxing Done\n","tensor([[0., 0., 0., 1., 0., 0.]])\n","(63, 128, 128, 3) True\n","ffmpeg version 4.4.2-0ubuntu0.22.04.1 Copyright (c) 2000-2021 the FFmpeg developers\n","  built with gcc 11 (Ubuntu 11.2.0-19ubuntu1)\n","  configuration: --prefix=/usr --extra-version=0ubuntu0.22.04.1 --toolchain=hardened --libdir=/usr/lib/x86_64-linux-gnu --incdir=/usr/include/x86_64-linux-gnu --arch=amd64 --enable-gpl --disable-stripping --enable-gnutls --enable-ladspa --enable-libaom --enable-libass --enable-libbluray --enable-libbs2b --enable-libcaca --enable-libcdio --enable-libcodec2 --enable-libdav1d --enable-libflite --enable-libfontconfig --enable-libfreetype --enable-libfribidi --enable-libgme --enable-libgsm --enable-libjack --enable-libmp3lame --enable-libmysofa --enable-libopenjpeg --enable-libopenmpt --enable-libopus --enable-libpulse --enable-librabbitmq --enable-librubberband --enable-libshine --enable-libsnappy --enable-libsoxr --enable-libspeex --enable-libsrt --enable-libssh --enable-libtheora --enable-libtwolame --enable-libvidstab --enable-libvorbis --enable-libvpx --enable-libwebp --enable-libx265 --enable-libxml2 --enable-libxvid --enable-libzimg --enable-libzmq --enable-libzvbi --enable-lv2 --enable-omx --enable-openal --enable-opencl --enable-opengl --enable-sdl2 --enable-pocketsphinx --enable-librsvg --enable-libmfx --enable-libdc1394 --enable-libdrm --enable-libiec61883 --enable-chromaprint --enable-frei0r --enable-libx264 --enable-shared\n","  libavutil      56. 70.100 / 56. 70.100\n","  libavcodec     58.134.100 / 58.134.100\n","  libavformat    58. 76.100 / 58. 76.100\n","  libavdevice    58. 13.100 / 58. 13.100\n","  libavfilter     7.110.100 /  7.110.100\n","  libswscale      5.  9.100 /  5.  9.100\n","  libswresample   3.  9.100 /  3.  9.100\n","  libpostproc    55.  9.100 / 55.  9.100\n","Input #0, mov,mp4,m4a,3gp,3g2,mj2, from './results/HAP_generated.mp4':\n","  Metadata:\n","    major_brand     : isom\n","    minor_version   : 512\n","    compatible_brands: isomiso2mp41\n","    encoder         : Lavf59.27.100\n","  Duration: 00:00:02.52, start: 0.000000, bitrate: 116 kb/s\n","  Stream #0:0(und): Video: mpeg4 (Simple Profile) (mp4v / 0x7634706D), yuv420p, 128x128 [SAR 1:1 DAR 1:1], 112 kb/s, 25 fps, 25 tbr, 12800 tbn, 25 tbc (default)\n","    Metadata:\n","      handler_name    : VideoHandler\n","      vendor_id       : [0][0][0][0]\n","\u001b[0;33mGuessed Channel Layout for Input Stream #1.0 : mono\n","\u001b[0mInput #1, wav, from './results/HAP_generated.mp4.wav':\n","  Duration: 00:00:02.50, bitrate: 128 kb/s\n","  Stream #1:0: Audio: pcm_s16le ([1][0][0][0] / 0x0001), 8000 Hz, mono, s16, 128 kb/s\n","Stream mapping:\n","  Stream #0:0 -> #0:0 (copy)\n","  Stream #1:0 -> #0:1 (pcm_s16le (native) -> aac (native))\n","Press [q] to stop, [?] for help\n","\u001b[1;36m[aac @ 0x5a0514895400] \u001b[0m\u001b[0;33mToo many bits 8832.000000 > 6144 per frame requested, clamping to max\n","\u001b[0mOutput #0, mp4, to './results/HAP_generated.mp4_.mp4':\n","  Metadata:\n","    major_brand     : isom\n","    minor_version   : 512\n","    compatible_brands: isomiso2mp41\n","    encoder         : Lavf58.76.100\n","  Stream #0:0(und): Video: mpeg4 (Simple Profile) (mp4v / 0x7634706D), yuv420p, 128x128 [SAR 1:1 DAR 1:1], q=2-31, 112 kb/s, 25 fps, 25 tbr, 12800 tbn, 12800 tbc (default)\n","    Metadata:\n","      handler_name    : VideoHandler\n","      vendor_id       : [0][0][0][0]\n","  Stream #0:1: Audio: aac (LC) (mp4a / 0x6134706D), 8000 Hz, mono, fltp, 48 kb/s\n","    Metadata:\n","      encoder         : Lavc58.134.100 aac\n","frame=   63 fps=0.0 q=-1.0 Lsize=      51kB time=00:00:02.48 bitrate= 166.9kbits/s speed= 154x    \n","video:35kB audio:14kB subtitle:0kB other streams:0kB global headers:0kB muxing overhead: 4.183359%\n","\u001b[1;36m[aac @ 0x5a0514895400] \u001b[0mQavg: 707.192\n","Muxing Done\n","tensor([[0., 0., 0., 0., 1., 0.]])\n","(63, 128, 128, 3) True\n","ffmpeg version 4.4.2-0ubuntu0.22.04.1 Copyright (c) 2000-2021 the FFmpeg developers\n","  built with gcc 11 (Ubuntu 11.2.0-19ubuntu1)\n","  configuration: --prefix=/usr --extra-version=0ubuntu0.22.04.1 --toolchain=hardened --libdir=/usr/lib/x86_64-linux-gnu --incdir=/usr/include/x86_64-linux-gnu --arch=amd64 --enable-gpl --disable-stripping --enable-gnutls --enable-ladspa --enable-libaom --enable-libass --enable-libbluray --enable-libbs2b --enable-libcaca --enable-libcdio --enable-libcodec2 --enable-libdav1d --enable-libflite --enable-libfontconfig --enable-libfreetype --enable-libfribidi --enable-libgme --enable-libgsm --enable-libjack --enable-libmp3lame --enable-libmysofa --enable-libopenjpeg --enable-libopenmpt --enable-libopus --enable-libpulse --enable-librabbitmq --enable-librubberband --enable-libshine --enable-libsnappy --enable-libsoxr --enable-libspeex --enable-libsrt --enable-libssh --enable-libtheora --enable-libtwolame --enable-libvidstab --enable-libvorbis --enable-libvpx --enable-libwebp --enable-libx265 --enable-libxml2 --enable-libxvid --enable-libzimg --enable-libzmq --enable-libzvbi --enable-lv2 --enable-omx --enable-openal --enable-opencl --enable-opengl --enable-sdl2 --enable-pocketsphinx --enable-librsvg --enable-libmfx --enable-libdc1394 --enable-libdrm --enable-libiec61883 --enable-chromaprint --enable-frei0r --enable-libx264 --enable-shared\n","  libavutil      56. 70.100 / 56. 70.100\n","  libavcodec     58.134.100 / 58.134.100\n","  libavformat    58. 76.100 / 58. 76.100\n","  libavdevice    58. 13.100 / 58. 13.100\n","  libavfilter     7.110.100 /  7.110.100\n","  libswscale      5.  9.100 /  5.  9.100\n","  libswresample   3.  9.100 /  3.  9.100\n","  libpostproc    55.  9.100 / 55.  9.100\n","Input #0, mov,mp4,m4a,3gp,3g2,mj2, from './results/NEU_generated.mp4':\n","  Metadata:\n","    major_brand     : isom\n","    minor_version   : 512\n","    compatible_brands: isomiso2mp41\n","    encoder         : Lavf59.27.100\n","  Duration: 00:00:02.52, start: 0.000000, bitrate: 99 kb/s\n","  Stream #0:0(und): Video: mpeg4 (Simple Profile) (mp4v / 0x7634706D), yuv420p, 128x128 [SAR 1:1 DAR 1:1], 95 kb/s, 25 fps, 25 tbr, 12800 tbn, 25 tbc (default)\n","    Metadata:\n","      handler_name    : VideoHandler\n","      vendor_id       : [0][0][0][0]\n","\u001b[0;33mGuessed Channel Layout for Input Stream #1.0 : mono\n","\u001b[0mInput #1, wav, from './results/NEU_generated.mp4.wav':\n","  Duration: 00:00:02.50, bitrate: 128 kb/s\n","  Stream #1:0: Audio: pcm_s16le ([1][0][0][0] / 0x0001), 8000 Hz, mono, s16, 128 kb/s\n","Stream mapping:\n","  Stream #0:0 -> #0:0 (copy)\n","  Stream #1:0 -> #0:1 (pcm_s16le (native) -> aac (native))\n","Press [q] to stop, [?] for help\n","\u001b[1;36m[aac @ 0x57d81aa88400] \u001b[0m\u001b[0;33mToo many bits 8832.000000 > 6144 per frame requested, clamping to max\n","\u001b[0mOutput #0, mp4, to './results/NEU_generated.mp4_.mp4':\n","  Metadata:\n","    major_brand     : isom\n","    minor_version   : 512\n","    compatible_brands: isomiso2mp41\n","    encoder         : Lavf58.76.100\n","  Stream #0:0(und): Video: mpeg4 (Simple Profile) (mp4v / 0x7634706D), yuv420p, 128x128 [SAR 1:1 DAR 1:1], q=2-31, 95 kb/s, 25 fps, 25 tbr, 12800 tbn, 12800 tbc (default)\n","    Metadata:\n","      handler_name    : VideoHandler\n","      vendor_id       : [0][0][0][0]\n","  Stream #0:1: Audio: aac (LC) (mp4a / 0x6134706D), 8000 Hz, mono, fltp, 48 kb/s\n","    Metadata:\n","      encoder         : Lavc58.134.100 aac\n","frame=   63 fps=0.0 q=-1.0 Lsize=      45kB time=00:00:02.48 bitrate= 149.8kbits/s speed=66.5x    \n","video:29kB audio:14kB subtitle:0kB other streams:0kB global headers:0kB muxing overhead: 4.685879%\n","\u001b[1;36m[aac @ 0x57d81aa88400] \u001b[0mQavg: 707.192\n","Muxing Done\n","tensor([[0., 0., 0., 0., 0., 1.]])\n","(63, 128, 128, 3) True\n","ffmpeg version 4.4.2-0ubuntu0.22.04.1 Copyright (c) 2000-2021 the FFmpeg developers\n","  built with gcc 11 (Ubuntu 11.2.0-19ubuntu1)\n","  configuration: --prefix=/usr --extra-version=0ubuntu0.22.04.1 --toolchain=hardened --libdir=/usr/lib/x86_64-linux-gnu --incdir=/usr/include/x86_64-linux-gnu --arch=amd64 --enable-gpl --disable-stripping --enable-gnutls --enable-ladspa --enable-libaom --enable-libass --enable-libbluray --enable-libbs2b --enable-libcaca --enable-libcdio --enable-libcodec2 --enable-libdav1d --enable-libflite --enable-libfontconfig --enable-libfreetype --enable-libfribidi --enable-libgme --enable-libgsm --enable-libjack --enable-libmp3lame --enable-libmysofa --enable-libopenjpeg --enable-libopenmpt --enable-libopus --enable-libpulse --enable-librabbitmq --enable-librubberband --enable-libshine --enable-libsnappy --enable-libsoxr --enable-libspeex --enable-libsrt --enable-libssh --enable-libtheora --enable-libtwolame --enable-libvidstab --enable-libvorbis --enable-libvpx --enable-libwebp --enable-libx265 --enable-libxml2 --enable-libxvid --enable-libzimg --enable-libzmq --enable-libzvbi --enable-lv2 --enable-omx --enable-openal --enable-opencl --enable-opengl --enable-sdl2 --enable-pocketsphinx --enable-librsvg --enable-libmfx --enable-libdc1394 --enable-libdrm --enable-libiec61883 --enable-chromaprint --enable-frei0r --enable-libx264 --enable-shared\n","  libavutil      56. 70.100 / 56. 70.100\n","  libavcodec     58.134.100 / 58.134.100\n","  libavformat    58. 76.100 / 58. 76.100\n","  libavdevice    58. 13.100 / 58. 13.100\n","  libavfilter     7.110.100 /  7.110.100\n","  libswscale      5.  9.100 /  5.  9.100\n","  libswresample   3.  9.100 /  3.  9.100\n","  libpostproc    55.  9.100 / 55.  9.100\n","Input #0, mov,mp4,m4a,3gp,3g2,mj2, from './results/SAD_generated.mp4':\n","  Metadata:\n","    major_brand     : isom\n","    minor_version   : 512\n","    compatible_brands: isomiso2mp41\n","    encoder         : Lavf59.27.100\n","  Duration: 00:00:02.52, start: 0.000000, bitrate: 102 kb/s\n","  Stream #0:0(und): Video: mpeg4 (Simple Profile) (mp4v / 0x7634706D), yuv420p, 128x128 [SAR 1:1 DAR 1:1], 98 kb/s, 25 fps, 25 tbr, 12800 tbn, 25 tbc (default)\n","    Metadata:\n","      handler_name    : VideoHandler\n","      vendor_id       : [0][0][0][0]\n","\u001b[0;33mGuessed Channel Layout for Input Stream #1.0 : mono\n","\u001b[0mInput #1, wav, from './results/SAD_generated.mp4.wav':\n","  Duration: 00:00:02.50, bitrate: 128 kb/s\n","  Stream #1:0: Audio: pcm_s16le ([1][0][0][0] / 0x0001), 8000 Hz, mono, s16, 128 kb/s\n","Stream mapping:\n","  Stream #0:0 -> #0:0 (copy)\n","  Stream #1:0 -> #0:1 (pcm_s16le (native) -> aac (native))\n","Press [q] to stop, [?] for help\n","\u001b[1;36m[aac @ 0x585078bd8400] \u001b[0m\u001b[0;33mToo many bits 8832.000000 > 6144 per frame requested, clamping to max\n","\u001b[0mOutput #0, mp4, to './results/SAD_generated.mp4_.mp4':\n","  Metadata:\n","    major_brand     : isom\n","    minor_version   : 512\n","    compatible_brands: isomiso2mp41\n","    encoder         : Lavf58.76.100\n","  Stream #0:0(und): Video: mpeg4 (Simple Profile) (mp4v / 0x7634706D), yuv420p, 128x128 [SAR 1:1 DAR 1:1], q=2-31, 98 kb/s, 25 fps, 25 tbr, 12800 tbn, 12800 tbc (default)\n","    Metadata:\n","      handler_name    : VideoHandler\n","      vendor_id       : [0][0][0][0]\n","  Stream #0:1: Audio: aac (LC) (mp4a / 0x6134706D), 8000 Hz, mono, fltp, 48 kb/s\n","    Metadata:\n","      encoder         : Lavc58.134.100 aac\n","frame=   63 fps=0.0 q=-1.0 Lsize=      46kB time=00:00:02.48 bitrate= 152.6kbits/s speed= 153x    \n","video:30kB audio:14kB subtitle:0kB other streams:0kB global headers:0kB muxing overhead: 4.594804%\n","\u001b[1;36m[aac @ 0x585078bd8400] \u001b[0mQavg: 707.192\n","Muxing Done\n"]}]},{"cell_type":"markdown","source":["Try our extracted images and wav"],"metadata":{"id":"Hnhvl2cHMUo0"}},{"cell_type":"code","source":["!python generate.py -im ../100_video_frames/VCslbP0mgZI_16/frame_00024.png -is ../100_wav/VCslbP0mgZI_16.wav -m ./model/ -o ./results_Our/num_10/"],"metadata":{"colab":{"base_uri":"https://localhost:8080/"},"id":"Qpozj7h_MX7O","executionInfo":{"status":"ok","timestamp":1713580642947,"user_tz":420,"elapsed":53818,"user":{"displayName":"Yaqi Hu","userId":"16505542820787683035"}},"outputId":"0ec37e08-d928-4dd2-c3bb-84e2fc346a44"},"execution_count":null,"outputs":[{"output_type":"stream","name":"stdout","text":["tensor([[1., 0., 0., 0., 0., 0.]])\n","(46, 128, 128, 3) True\n","ffmpeg version 4.4.2-0ubuntu0.22.04.1 Copyright (c) 2000-2021 the FFmpeg developers\n","  built with gcc 11 (Ubuntu 11.2.0-19ubuntu1)\n","  configuration: --prefix=/usr --extra-version=0ubuntu0.22.04.1 --toolchain=hardened --libdir=/usr/lib/x86_64-linux-gnu --incdir=/usr/include/x86_64-linux-gnu --arch=amd64 --enable-gpl --disable-stripping --enable-gnutls --enable-ladspa --enable-libaom --enable-libass --enable-libbluray --enable-libbs2b --enable-libcaca --enable-libcdio --enable-libcodec2 --enable-libdav1d --enable-libflite --enable-libfontconfig --enable-libfreetype --enable-libfribidi --enable-libgme --enable-libgsm --enable-libjack --enable-libmp3lame --enable-libmysofa --enable-libopenjpeg --enable-libopenmpt --enable-libopus --enable-libpulse --enable-librabbitmq --enable-librubberband --enable-libshine --enable-libsnappy --enable-libsoxr --enable-libspeex --enable-libsrt --enable-libssh --enable-libtheora --enable-libtwolame --enable-libvidstab --enable-libvorbis --enable-libvpx --enable-libwebp --enable-libx265 --enable-libxml2 --enable-libxvid --enable-libzimg --enable-libzmq --enable-libzvbi --enable-lv2 --enable-omx --enable-openal --enable-opencl --enable-opengl --enable-sdl2 --enable-pocketsphinx --enable-librsvg --enable-libmfx --enable-libdc1394 --enable-libdrm --enable-libiec61883 --enable-chromaprint --enable-frei0r --enable-libx264 --enable-shared\n","  libavutil      56. 70.100 / 56. 70.100\n","  libavcodec     58.134.100 / 58.134.100\n","  libavformat    58. 76.100 / 58. 76.100\n","  libavdevice    58. 13.100 / 58. 13.100\n","  libavfilter     7.110.100 /  7.110.100\n","  libswscale      5.  9.100 /  5.  9.100\n","  libswresample   3.  9.100 /  3.  9.100\n","  libpostproc    55.  9.100 / 55.  9.100\n","Input #0, mov,mp4,m4a,3gp,3g2,mj2, from './results_Our/num_10/ANG_generated.mp4':\n","  Metadata:\n","    major_brand     : isom\n","    minor_version   : 512\n","    compatible_brands: isomiso2mp41\n","    encoder         : Lavf59.27.100\n","  Duration: 00:00:01.84, start: 0.000000, bitrate: 126 kb/s\n","  Stream #0:0(und): Video: mpeg4 (Simple Profile) (mp4v / 0x7634706D), yuv420p, 128x128 [SAR 1:1 DAR 1:1], 122 kb/s, 25 fps, 25 tbr, 12800 tbn, 25 tbc (default)\n","    Metadata:\n","      handler_name    : VideoHandler\n","      vendor_id       : [0][0][0][0]\n","\u001b[0;33mGuessed Channel Layout for Input Stream #1.0 : mono\n","\u001b[0mInput #1, wav, from './results_Our/num_10/ANG_generated.mp4.wav':\n","  Duration: 00:00:01.83, bitrate: 128 kb/s\n","  Stream #1:0: Audio: pcm_s16le ([1][0][0][0] / 0x0001), 8000 Hz, mono, s16, 128 kb/s\n","Stream mapping:\n","  Stream #0:0 -> #0:0 (copy)\n","  Stream #1:0 -> #0:1 (pcm_s16le (native) -> aac (native))\n","Press [q] to stop, [?] for help\n","\u001b[1;36m[aac @ 0x5980ebcc6380] \u001b[0m\u001b[0;33mToo many bits 8832.000000 > 6144 per frame requested, clamping to max\n","\u001b[0mOutput #0, mp4, to './results_Our/num_10/ANG_generated.mp4_.mp4':\n","  Metadata:\n","    major_brand     : isom\n","    minor_version   : 512\n","    compatible_brands: isomiso2mp41\n","    encoder         : Lavf58.76.100\n","  Stream #0:0(und): Video: mpeg4 (Simple Profile) (mp4v / 0x7634706D), yuv420p, 128x128 [SAR 1:1 DAR 1:1], q=2-31, 122 kb/s, 25 fps, 25 tbr, 12800 tbn, 12800 tbc (default)\n","    Metadata:\n","      handler_name    : VideoHandler\n","      vendor_id       : [0][0][0][0]\n","  Stream #0:1: Audio: aac (LC) (mp4a / 0x6134706D), 8000 Hz, mono, fltp, 48 kb/s\n","    Metadata:\n","      encoder         : Lavc58.134.100 aac\n","frame=   46 fps=0.0 q=-1.0 Lsize=      39kB time=00:00:01.80 bitrate= 178.9kbits/s speed= 158x    \n","video:27kB audio:10kB subtitle:0kB other streams:0kB global headers:0kB muxing overhead: 5.002869%\n","\u001b[1;36m[aac @ 0x5980ebcc6380] \u001b[0mQavg: 4239.398\n","Muxing Done\n","tensor([[0., 1., 0., 0., 0., 0.]])\n","(46, 128, 128, 3) True\n","ffmpeg version 4.4.2-0ubuntu0.22.04.1 Copyright (c) 2000-2021 the FFmpeg developers\n","  built with gcc 11 (Ubuntu 11.2.0-19ubuntu1)\n","  configuration: --prefix=/usr --extra-version=0ubuntu0.22.04.1 --toolchain=hardened --libdir=/usr/lib/x86_64-linux-gnu --incdir=/usr/include/x86_64-linux-gnu --arch=amd64 --enable-gpl --disable-stripping --enable-gnutls --enable-ladspa --enable-libaom --enable-libass --enable-libbluray --enable-libbs2b --enable-libcaca --enable-libcdio --enable-libcodec2 --enable-libdav1d --enable-libflite --enable-libfontconfig --enable-libfreetype --enable-libfribidi --enable-libgme --enable-libgsm --enable-libjack --enable-libmp3lame --enable-libmysofa --enable-libopenjpeg --enable-libopenmpt --enable-libopus --enable-libpulse --enable-librabbitmq --enable-librubberband --enable-libshine --enable-libsnappy --enable-libsoxr --enable-libspeex --enable-libsrt --enable-libssh --enable-libtheora --enable-libtwolame --enable-libvidstab --enable-libvorbis --enable-libvpx --enable-libwebp --enable-libx265 --enable-libxml2 --enable-libxvid --enable-libzimg --enable-libzmq --enable-libzvbi --enable-lv2 --enable-omx --enable-openal --enable-opencl --enable-opengl --enable-sdl2 --enable-pocketsphinx --enable-librsvg --enable-libmfx --enable-libdc1394 --enable-libdrm --enable-libiec61883 --enable-chromaprint --enable-frei0r --enable-libx264 --enable-shared\n","  libavutil      56. 70.100 / 56. 70.100\n","  libavcodec     58.134.100 / 58.134.100\n","  libavformat    58. 76.100 / 58. 76.100\n","  libavdevice    58. 13.100 / 58. 13.100\n","  libavfilter     7.110.100 /  7.110.100\n","  libswscale      5.  9.100 /  5.  9.100\n","  libswresample   3.  9.100 /  3.  9.100\n","  libpostproc    55.  9.100 / 55.  9.100\n","Input #0, mov,mp4,m4a,3gp,3g2,mj2, from './results_Our/num_10/DIS_generated.mp4':\n","  Metadata:\n","    major_brand     : isom\n","    minor_version   : 512\n","    compatible_brands: isomiso2mp41\n","    encoder         : Lavf59.27.100\n","  Duration: 00:00:01.84, start: 0.000000, bitrate: 122 kb/s\n","  Stream #0:0(und): Video: mpeg4 (Simple Profile) (mp4v / 0x7634706D), yuv420p, 128x128 [SAR 1:1 DAR 1:1], 117 kb/s, 25 fps, 25 tbr, 12800 tbn, 25 tbc (default)\n","    Metadata:\n","      handler_name    : VideoHandler\n","      vendor_id       : [0][0][0][0]\n","\u001b[0;33mGuessed Channel Layout for Input Stream #1.0 : mono\n","\u001b[0mInput #1, wav, from './results_Our/num_10/DIS_generated.mp4.wav':\n","  Duration: 00:00:01.83, bitrate: 128 kb/s\n","  Stream #1:0: Audio: pcm_s16le ([1][0][0][0] / 0x0001), 8000 Hz, mono, s16, 128 kb/s\n","Stream mapping:\n","  Stream #0:0 -> #0:0 (copy)\n","  Stream #1:0 -> #0:1 (pcm_s16le (native) -> aac (native))\n","Press [q] to stop, [?] for help\n","\u001b[1;36m[aac @ 0x575560e1e380] \u001b[0m\u001b[0;33mToo many bits 8832.000000 > 6144 per frame requested, clamping to max\n","\u001b[0mOutput #0, mp4, to './results_Our/num_10/DIS_generated.mp4_.mp4':\n","  Metadata:\n","    major_brand     : isom\n","    minor_version   : 512\n","    compatible_brands: isomiso2mp41\n","    encoder         : Lavf58.76.100\n","  Stream #0:0(und): Video: mpeg4 (Simple Profile) (mp4v / 0x7634706D), yuv420p, 128x128 [SAR 1:1 DAR 1:1], q=2-31, 117 kb/s, 25 fps, 25 tbr, 12800 tbn, 12800 tbc (default)\n","    Metadata:\n","      handler_name    : VideoHandler\n","      vendor_id       : [0][0][0][0]\n","  Stream #0:1: Audio: aac (LC) (mp4a / 0x6134706D), 8000 Hz, mono, fltp, 48 kb/s\n","    Metadata:\n","      encoder         : Lavc58.134.100 aac\n","frame=   46 fps=0.0 q=-1.0 Lsize=      38kB time=00:00:01.80 bitrate= 174.1kbits/s speed= 173x    \n","video:26kB audio:10kB subtitle:0kB other streams:0kB global headers:0kB muxing overhead: 5.147059%\n","\u001b[1;36m[aac @ 0x575560e1e380] \u001b[0mQavg: 4239.398\n","Muxing Done\n","tensor([[0., 0., 1., 0., 0., 0.]])\n","(46, 128, 128, 3) True\n","ffmpeg version 4.4.2-0ubuntu0.22.04.1 Copyright (c) 2000-2021 the FFmpeg developers\n","  built with gcc 11 (Ubuntu 11.2.0-19ubuntu1)\n","  configuration: --prefix=/usr --extra-version=0ubuntu0.22.04.1 --toolchain=hardened --libdir=/usr/lib/x86_64-linux-gnu --incdir=/usr/include/x86_64-linux-gnu --arch=amd64 --enable-gpl --disable-stripping --enable-gnutls --enable-ladspa --enable-libaom --enable-libass --enable-libbluray --enable-libbs2b --enable-libcaca --enable-libcdio --enable-libcodec2 --enable-libdav1d --enable-libflite --enable-libfontconfig --enable-libfreetype --enable-libfribidi --enable-libgme --enable-libgsm --enable-libjack --enable-libmp3lame --enable-libmysofa --enable-libopenjpeg --enable-libopenmpt --enable-libopus --enable-libpulse --enable-librabbitmq --enable-librubberband --enable-libshine --enable-libsnappy --enable-libsoxr --enable-libspeex --enable-libsrt --enable-libssh --enable-libtheora --enable-libtwolame --enable-libvidstab --enable-libvorbis --enable-libvpx --enable-libwebp --enable-libx265 --enable-libxml2 --enable-libxvid --enable-libzimg --enable-libzmq --enable-libzvbi --enable-lv2 --enable-omx --enable-openal --enable-opencl --enable-opengl --enable-sdl2 --enable-pocketsphinx --enable-librsvg --enable-libmfx --enable-libdc1394 --enable-libdrm --enable-libiec61883 --enable-chromaprint --enable-frei0r --enable-libx264 --enable-shared\n","  libavutil      56. 70.100 / 56. 70.100\n","  libavcodec     58.134.100 / 58.134.100\n","  libavformat    58. 76.100 / 58. 76.100\n","  libavdevice    58. 13.100 / 58. 13.100\n","  libavfilter     7.110.100 /  7.110.100\n","  libswscale      5.  9.100 /  5.  9.100\n","  libswresample   3.  9.100 /  3.  9.100\n","  libpostproc    55.  9.100 / 55.  9.100\n","Input #0, mov,mp4,m4a,3gp,3g2,mj2, from './results_Our/num_10/FEA_generated.mp4':\n","  Metadata:\n","    major_brand     : isom\n","    minor_version   : 512\n","    compatible_brands: isomiso2mp41\n","    encoder         : Lavf59.27.100\n","  Duration: 00:00:01.84, start: 0.000000, bitrate: 120 kb/s\n","  Stream #0:0(und): Video: mpeg4 (Simple Profile) (mp4v / 0x7634706D), yuv420p, 128x128 [SAR 1:1 DAR 1:1], 115 kb/s, 25 fps, 25 tbr, 12800 tbn, 25 tbc (default)\n","    Metadata:\n","      handler_name    : VideoHandler\n","      vendor_id       : [0][0][0][0]\n","\u001b[0;33mGuessed Channel Layout for Input Stream #1.0 : mono\n","\u001b[0mInput #1, wav, from './results_Our/num_10/FEA_generated.mp4.wav':\n","  Duration: 00:00:01.83, bitrate: 128 kb/s\n","  Stream #1:0: Audio: pcm_s16le ([1][0][0][0] / 0x0001), 8000 Hz, mono, s16, 128 kb/s\n","Stream mapping:\n","  Stream #0:0 -> #0:0 (copy)\n","  Stream #1:0 -> #0:1 (pcm_s16le (native) -> aac (native))\n","Press [q] to stop, [?] for help\n","\u001b[1;36m[aac @ 0x579da7dcb380] \u001b[0m\u001b[0;33mToo many bits 8832.000000 > 6144 per frame requested, clamping to max\n","\u001b[0mOutput #0, mp4, to './results_Our/num_10/FEA_generated.mp4_.mp4':\n","  Metadata:\n","    major_brand     : isom\n","    minor_version   : 512\n","    compatible_brands: isomiso2mp41\n","    encoder         : Lavf58.76.100\n","  Stream #0:0(und): Video: mpeg4 (Simple Profile) (mp4v / 0x7634706D), yuv420p, 128x128 [SAR 1:1 DAR 1:1], q=2-31, 115 kb/s, 25 fps, 25 tbr, 12800 tbn, 12800 tbc (default)\n","    Metadata:\n","      handler_name    : VideoHandler\n","      vendor_id       : [0][0][0][0]\n","  Stream #0:1: Audio: aac (LC) (mp4a / 0x6134706D), 8000 Hz, mono, fltp, 48 kb/s\n","    Metadata:\n","      encoder         : Lavc58.134.100 aac\n","frame=   46 fps=0.0 q=-1.0 Lsize=      38kB time=00:00:01.80 bitrate= 172.5kbits/s speed= 171x    \n","video:26kB audio:10kB subtitle:0kB other streams:0kB global headers:0kB muxing overhead: 5.197550%\n","\u001b[1;36m[aac @ 0x579da7dcb380] \u001b[0mQavg: 4239.398\n","Muxing Done\n","tensor([[0., 0., 0., 1., 0., 0.]])\n","(46, 128, 128, 3) True\n","ffmpeg version 4.4.2-0ubuntu0.22.04.1 Copyright (c) 2000-2021 the FFmpeg developers\n","  built with gcc 11 (Ubuntu 11.2.0-19ubuntu1)\n","  configuration: --prefix=/usr --extra-version=0ubuntu0.22.04.1 --toolchain=hardened --libdir=/usr/lib/x86_64-linux-gnu --incdir=/usr/include/x86_64-linux-gnu --arch=amd64 --enable-gpl --disable-stripping --enable-gnutls --enable-ladspa --enable-libaom --enable-libass --enable-libbluray --enable-libbs2b --enable-libcaca --enable-libcdio --enable-libcodec2 --enable-libdav1d --enable-libflite --enable-libfontconfig --enable-libfreetype --enable-libfribidi --enable-libgme --enable-libgsm --enable-libjack --enable-libmp3lame --enable-libmysofa --enable-libopenjpeg --enable-libopenmpt --enable-libopus --enable-libpulse --enable-librabbitmq --enable-librubberband --enable-libshine --enable-libsnappy --enable-libsoxr --enable-libspeex --enable-libsrt --enable-libssh --enable-libtheora --enable-libtwolame --enable-libvidstab --enable-libvorbis --enable-libvpx --enable-libwebp --enable-libx265 --enable-libxml2 --enable-libxvid --enable-libzimg --enable-libzmq --enable-libzvbi --enable-lv2 --enable-omx --enable-openal --enable-opencl --enable-opengl --enable-sdl2 --enable-pocketsphinx --enable-librsvg --enable-libmfx --enable-libdc1394 --enable-libdrm --enable-libiec61883 --enable-chromaprint --enable-frei0r --enable-libx264 --enable-shared\n","  libavutil      56. 70.100 / 56. 70.100\n","  libavcodec     58.134.100 / 58.134.100\n","  libavformat    58. 76.100 / 58. 76.100\n","  libavdevice    58. 13.100 / 58. 13.100\n","  libavfilter     7.110.100 /  7.110.100\n","  libswscale      5.  9.100 /  5.  9.100\n","  libswresample   3.  9.100 /  3.  9.100\n","  libpostproc    55.  9.100 / 55.  9.100\n","Input #0, mov,mp4,m4a,3gp,3g2,mj2, from './results_Our/num_10/HAP_generated.mp4':\n","  Metadata:\n","    major_brand     : isom\n","    minor_version   : 512\n","    compatible_brands: isomiso2mp41\n","    encoder         : Lavf59.27.100\n","  Duration: 00:00:01.84, start: 0.000000, bitrate: 132 kb/s\n","  Stream #0:0(und): Video: mpeg4 (Simple Profile) (mp4v / 0x7634706D), yuv420p, 128x128 [SAR 1:1 DAR 1:1], 128 kb/s, 25 fps, 25 tbr, 12800 tbn, 25 tbc (default)\n","    Metadata:\n","      handler_name    : VideoHandler\n","      vendor_id       : [0][0][0][0]\n","\u001b[0;33mGuessed Channel Layout for Input Stream #1.0 : mono\n","\u001b[0mInput #1, wav, from './results_Our/num_10/HAP_generated.mp4.wav':\n","  Duration: 00:00:01.83, bitrate: 128 kb/s\n","  Stream #1:0: Audio: pcm_s16le ([1][0][0][0] / 0x0001), 8000 Hz, mono, s16, 128 kb/s\n","Stream mapping:\n","  Stream #0:0 -> #0:0 (copy)\n","  Stream #1:0 -> #0:1 (pcm_s16le (native) -> aac (native))\n","Press [q] to stop, [?] for help\n","\u001b[1;36m[aac @ 0x5c3af8e63380] \u001b[0m\u001b[0;33mToo many bits 8832.000000 > 6144 per frame requested, clamping to max\n","\u001b[0mOutput #0, mp4, to './results_Our/num_10/HAP_generated.mp4_.mp4':\n","  Metadata:\n","    major_brand     : isom\n","    minor_version   : 512\n","    compatible_brands: isomiso2mp41\n","    encoder         : Lavf58.76.100\n","  Stream #0:0(und): Video: mpeg4 (Simple Profile) (mp4v / 0x7634706D), yuv420p, 128x128 [SAR 1:1 DAR 1:1], q=2-31, 128 kb/s, 25 fps, 25 tbr, 12800 tbn, 12800 tbc (default)\n","    Metadata:\n","      handler_name    : VideoHandler\n","      vendor_id       : [0][0][0][0]\n","  Stream #0:1: Audio: aac (LC) (mp4a / 0x6134706D), 8000 Hz, mono, fltp, 48 kb/s\n","    Metadata:\n","      encoder         : Lavc58.134.100 aac\n","frame=   46 fps=0.0 q=-1.0 Lsize=      41kB time=00:00:01.80 bitrate= 185.0kbits/s speed=70.4x    \n","video:29kB audio:10kB subtitle:0kB other streams:0kB global headers:0kB muxing overhead: 4.829531%\n","\u001b[1;36m[aac @ 0x5c3af8e63380] \u001b[0mQavg: 4239.398\n","Muxing Done\n","tensor([[0., 0., 0., 0., 1., 0.]])\n","(46, 128, 128, 3) True\n","ffmpeg version 4.4.2-0ubuntu0.22.04.1 Copyright (c) 2000-2021 the FFmpeg developers\n","  built with gcc 11 (Ubuntu 11.2.0-19ubuntu1)\n","  configuration: --prefix=/usr --extra-version=0ubuntu0.22.04.1 --toolchain=hardened --libdir=/usr/lib/x86_64-linux-gnu --incdir=/usr/include/x86_64-linux-gnu --arch=amd64 --enable-gpl --disable-stripping --enable-gnutls --enable-ladspa --enable-libaom --enable-libass --enable-libbluray --enable-libbs2b --enable-libcaca --enable-libcdio --enable-libcodec2 --enable-libdav1d --enable-libflite --enable-libfontconfig --enable-libfreetype --enable-libfribidi --enable-libgme --enable-libgsm --enable-libjack --enable-libmp3lame --enable-libmysofa --enable-libopenjpeg --enable-libopenmpt --enable-libopus --enable-libpulse --enable-librabbitmq --enable-librubberband --enable-libshine --enable-libsnappy --enable-libsoxr --enable-libspeex --enable-libsrt --enable-libssh --enable-libtheora --enable-libtwolame --enable-libvidstab --enable-libvorbis --enable-libvpx --enable-libwebp --enable-libx265 --enable-libxml2 --enable-libxvid --enable-libzimg --enable-libzmq --enable-libzvbi --enable-lv2 --enable-omx --enable-openal --enable-opencl --enable-opengl --enable-sdl2 --enable-pocketsphinx --enable-librsvg --enable-libmfx --enable-libdc1394 --enable-libdrm --enable-libiec61883 --enable-chromaprint --enable-frei0r --enable-libx264 --enable-shared\n","  libavutil      56. 70.100 / 56. 70.100\n","  libavcodec     58.134.100 / 58.134.100\n","  libavformat    58. 76.100 / 58. 76.100\n","  libavdevice    58. 13.100 / 58. 13.100\n","  libavfilter     7.110.100 /  7.110.100\n","  libswscale      5.  9.100 /  5.  9.100\n","  libswresample   3.  9.100 /  3.  9.100\n","  libpostproc    55.  9.100 / 55.  9.100\n","Input #0, mov,mp4,m4a,3gp,3g2,mj2, from './results_Our/num_10/NEU_generated.mp4':\n","  Metadata:\n","    major_brand     : isom\n","    minor_version   : 512\n","    compatible_brands: isomiso2mp41\n","    encoder         : Lavf59.27.100\n","  Duration: 00:00:01.84, start: 0.000000, bitrate: 110 kb/s\n","  Stream #0:0(und): Video: mpeg4 (Simple Profile) (mp4v / 0x7634706D), yuv420p, 128x128 [SAR 1:1 DAR 1:1], 105 kb/s, 25 fps, 25 tbr, 12800 tbn, 25 tbc (default)\n","    Metadata:\n","      handler_name    : VideoHandler\n","      vendor_id       : [0][0][0][0]\n","\u001b[0;33mGuessed Channel Layout for Input Stream #1.0 : mono\n","\u001b[0mInput #1, wav, from './results_Our/num_10/NEU_generated.mp4.wav':\n","  Duration: 00:00:01.83, bitrate: 128 kb/s\n","  Stream #1:0: Audio: pcm_s16le ([1][0][0][0] / 0x0001), 8000 Hz, mono, s16, 128 kb/s\n","Stream mapping:\n","  Stream #0:0 -> #0:0 (copy)\n","  Stream #1:0 -> #0:1 (pcm_s16le (native) -> aac (native))\n","Press [q] to stop, [?] for help\n","\u001b[1;36m[aac @ 0x5759d545b380] \u001b[0m\u001b[0;33mToo many bits 8832.000000 > 6144 per frame requested, clamping to max\n","\u001b[0mOutput #0, mp4, to './results_Our/num_10/NEU_generated.mp4_.mp4':\n","  Metadata:\n","    major_brand     : isom\n","    minor_version   : 512\n","    compatible_brands: isomiso2mp41\n","    encoder         : Lavf58.76.100\n","  Stream #0:0(und): Video: mpeg4 (Simple Profile) (mp4v / 0x7634706D), yuv420p, 128x128 [SAR 1:1 DAR 1:1], q=2-31, 105 kb/s, 25 fps, 25 tbr, 12800 tbn, 12800 tbc (default)\n","    Metadata:\n","      handler_name    : VideoHandler\n","      vendor_id       : [0][0][0][0]\n","  Stream #0:1: Audio: aac (LC) (mp4a / 0x6134706D), 8000 Hz, mono, fltp, 48 kb/s\n","    Metadata:\n","      encoder         : Lavc58.134.100 aac\n","frame=   46 fps=0.0 q=-1.0 Lsize=      36kB time=00:00:01.80 bitrate= 162.2kbits/s speed= 170x    \n","video:24kB audio:10kB subtitle:0kB other streams:0kB global headers:0kB muxing overhead: 5.548003%\n","\u001b[1;36m[aac @ 0x5759d545b380] \u001b[0mQavg: 4239.398\n","Muxing Done\n","tensor([[0., 0., 0., 0., 0., 1.]])\n","(46, 128, 128, 3) True\n","ffmpeg version 4.4.2-0ubuntu0.22.04.1 Copyright (c) 2000-2021 the FFmpeg developers\n","  built with gcc 11 (Ubuntu 11.2.0-19ubuntu1)\n","  configuration: --prefix=/usr --extra-version=0ubuntu0.22.04.1 --toolchain=hardened --libdir=/usr/lib/x86_64-linux-gnu --incdir=/usr/include/x86_64-linux-gnu --arch=amd64 --enable-gpl --disable-stripping --enable-gnutls --enable-ladspa --enable-libaom --enable-libass --enable-libbluray --enable-libbs2b --enable-libcaca --enable-libcdio --enable-libcodec2 --enable-libdav1d --enable-libflite --enable-libfontconfig --enable-libfreetype --enable-libfribidi --enable-libgme --enable-libgsm --enable-libjack --enable-libmp3lame --enable-libmysofa --enable-libopenjpeg --enable-libopenmpt --enable-libopus --enable-libpulse --enable-librabbitmq --enable-librubberband --enable-libshine --enable-libsnappy --enable-libsoxr --enable-libspeex --enable-libsrt --enable-libssh --enable-libtheora --enable-libtwolame --enable-libvidstab --enable-libvorbis --enable-libvpx --enable-libwebp --enable-libx265 --enable-libxml2 --enable-libxvid --enable-libzimg --enable-libzmq --enable-libzvbi --enable-lv2 --enable-omx --enable-openal --enable-opencl --enable-opengl --enable-sdl2 --enable-pocketsphinx --enable-librsvg --enable-libmfx --enable-libdc1394 --enable-libdrm --enable-libiec61883 --enable-chromaprint --enable-frei0r --enable-libx264 --enable-shared\n","  libavutil      56. 70.100 / 56. 70.100\n","  libavcodec     58.134.100 / 58.134.100\n","  libavformat    58. 76.100 / 58. 76.100\n","  libavdevice    58. 13.100 / 58. 13.100\n","  libavfilter     7.110.100 /  7.110.100\n","  libswscale      5.  9.100 /  5.  9.100\n","  libswresample   3.  9.100 /  3.  9.100\n","  libpostproc    55.  9.100 / 55.  9.100\n","Input #0, mov,mp4,m4a,3gp,3g2,mj2, from './results_Our/num_10/SAD_generated.mp4':\n","  Metadata:\n","    major_brand     : isom\n","    minor_version   : 512\n","    compatible_brands: isomiso2mp41\n","    encoder         : Lavf59.27.100\n","  Duration: 00:00:01.84, start: 0.000000, bitrate: 117 kb/s\n","  Stream #0:0(und): Video: mpeg4 (Simple Profile) (mp4v / 0x7634706D), yuv420p, 128x128 [SAR 1:1 DAR 1:1], 112 kb/s, 25 fps, 25 tbr, 12800 tbn, 25 tbc (default)\n","    Metadata:\n","      handler_name    : VideoHandler\n","      vendor_id       : [0][0][0][0]\n","\u001b[0;33mGuessed Channel Layout for Input Stream #1.0 : mono\n","\u001b[0mInput #1, wav, from './results_Our/num_10/SAD_generated.mp4.wav':\n","  Duration: 00:00:01.83, bitrate: 128 kb/s\n","  Stream #1:0: Audio: pcm_s16le ([1][0][0][0] / 0x0001), 8000 Hz, mono, s16, 128 kb/s\n","Stream mapping:\n","  Stream #0:0 -> #0:0 (copy)\n","  Stream #1:0 -> #0:1 (pcm_s16le (native) -> aac (native))\n","Press [q] to stop, [?] for help\n","\u001b[1;36m[aac @ 0x5b4d9a0ef380] \u001b[0m\u001b[0;33mToo many bits 8832.000000 > 6144 per frame requested, clamping to max\n","\u001b[0mOutput #0, mp4, to './results_Our/num_10/SAD_generated.mp4_.mp4':\n","  Metadata:\n","    major_brand     : isom\n","    minor_version   : 512\n","    compatible_brands: isomiso2mp41\n","    encoder         : Lavf58.76.100\n","  Stream #0:0(und): Video: mpeg4 (Simple Profile) (mp4v / 0x7634706D), yuv420p, 128x128 [SAR 1:1 DAR 1:1], q=2-31, 112 kb/s, 25 fps, 25 tbr, 12800 tbn, 12800 tbc (default)\n","    Metadata:\n","      handler_name    : VideoHandler\n","      vendor_id       : [0][0][0][0]\n","  Stream #0:1: Audio: aac (LC) (mp4a / 0x6134706D), 8000 Hz, mono, fltp, 48 kb/s\n","    Metadata:\n","      encoder         : Lavc58.134.100 aac\n","frame=   46 fps=0.0 q=-1.0 Lsize=      37kB time=00:00:01.80 bitrate= 169.3kbits/s speed= 151x    \n","video:25kB audio:10kB subtitle:0kB other streams:0kB global headers:0kB muxing overhead: 5.300539%\n","\u001b[1;36m[aac @ 0x5b4d9a0ef380] \u001b[0mQavg: 4239.398\n","Muxing Done\n"]}]},{"cell_type":"markdown","source":["Pre-train Our models"],"metadata":{"id":"79boMAW1IpdB"}},{"cell_type":"markdown","source":["Check whether we have the data or not"],"metadata":{"id":"OgwoymyjKWYl"}},{"cell_type":"code","source":["# os.chdir('/content/drive/MyDrive/USC_Course/Multimodal_Probabilistic_Learning_of_Human_CSCI535/Group_Project/emotalkingface-main/val_hdf5_folder')\n","# !ls\n","# os.chdir('/content/drive/MyDrive/USC_Course/Multimodal_Probabilistic_Learning_of_Human_CSCI535/Group_Project/emotalkingface-main')"],"metadata":{"id":"to66qHDAKCDo"},"execution_count":null,"outputs":[]},{"cell_type":"markdown","source":["Train the model"],"metadata":{"id":"la1wi0W3KZkP"}},{"cell_type":"code","source":["!python train.py -i ./train_hdf5_folder/ -v ./val_hdf5_folder/ -o ./models/mde/ --pre_train 1 --disc_emo 1 --lr_emo 1e-4"],"metadata":{"colab":{"base_uri":"https://localhost:8080/"},"id":"7Huody1zM_Au","executionInfo":{"status":"ok","timestamp":1713727764848,"user_tz":420,"elapsed":271551,"user":{"displayName":"Yaqi Hu","userId":"16505542820787683035"}},"outputId":"4e63c9d0-1c53-4fd7-a684-f447127e3c78"},"execution_count":4,"outputs":[{"output_type":"stream","name":"stdout","text":["2024-04-21 19:25:04.836542: E external/local_xla/xla/stream_executor/cuda/cuda_dnn.cc:9261] Unable to register cuDNN factory: Attempting to register factory for plugin cuDNN when one has already been registered\n","2024-04-21 19:25:04.836602: E external/local_xla/xla/stream_executor/cuda/cuda_fft.cc:607] Unable to register cuFFT factory: Attempting to register factory for plugin cuFFT when one has already been registered\n","2024-04-21 19:25:04.838005: E external/local_xla/xla/stream_executor/cuda/cuda_blas.cc:1515] Unable to register cuBLAS factory: Attempting to register factory for plugin cuBLAS when one has already been registered\n","2024-04-21 19:25:05.876986: W tensorflow/compiler/tf2tensorrt/utils/py_utils.cc:38] TF-TRT Warning: Could not find TensorRT\n","Cuda device available:  True\n","Num files:  1757\n","/usr/local/lib/python3.10/dist-packages/albumentations/augmentations/transforms.py:1258: FutureWarning: This class has been deprecated. Please use RandomBrightnessContrast\n","  warnings.warn(\n","/usr/local/lib/python3.10/dist-packages/albumentations/augmentations/transforms.py:1284: FutureWarning: RandomContrast has been deprecated. Please use RandomBrightnessContrast\n","  warnings.warn(\n","Num files:  441\n","/usr/local/lib/python3.10/dist-packages/torchvision/models/_utils.py:208: UserWarning: The parameter 'pretrained' is deprecated since 0.13 and may be removed in the future, please use 'weights' instead.\n","  warnings.warn(\n","/usr/local/lib/python3.10/dist-packages/torchvision/models/_utils.py:223: UserWarning: Arguments other than a weight enum or `None` for 'weights' are deprecated since 0.13 and may be removed in the future. The current behavior is equivalent to passing `weights=VGG19_Weights.IMAGENET1K_V1`. You can also use `weights=VGG19_Weights.DEFAULT` to get the most up-to-date weights.\n","  warnings.warn(msg)\n","Downloading: \"https://download.pytorch.org/models/vgg19-dcbb9e9d.pth\" to /root/.cache/torch/hub/checkpoints/vgg19-dcbb9e9d.pth\n","100% 548M/548M [00:04<00:00, 128MB/s]\n","  0% 0/1000 [00:00<?, ?it/s]\n","  0% 0/219 [00:00<?, ?it/s]\u001b[A\n","loss_classifier: 1.96998, :   0% 0/219 [00:06<?, ?it/s]\u001b[ANetworks has been saved to inter\n","\n","loss_classifier: 1.96998, :   0% 1/219 [00:07<25:47,  7.10s/it]\u001b[A\n","loss_classifier: 1.85417, :   0% 1/219 [00:12<25:47,  7.10s/it]\u001b[A\n","loss_classifier: 1.85417, :   1% 2/219 [00:12<22:03,  6.10s/it]\u001b[ATraceback (most recent call last):\n","  File \"h5py/_objects.pyx\", line 201, in h5py._objects.ObjectID.__dealloc__\n","RuntimeError: Can't decrement id ref count (unable to close file, errno = 103, error message = 'Software caused connection abort')\n","Exception ignored in: 'h5py._objects.ObjectID.__dealloc__'\n","Traceback (most recent call last):\n","  File \"h5py/_objects.pyx\", line 201, in h5py._objects.ObjectID.__dealloc__\n","RuntimeError: Can't decrement id ref count (unable to close file, errno = 103, error message = 'Software caused connection abort')\n","loss_classifier: 1.85417, :   1% 2/219 [03:54<7:04:00, 117.24s/it]\n","  0% 0/1000 [03:54<?, ?it/s]\n","Traceback (most recent call last):\n","  File \"/content/drive/MyDrive/USC_Course/Multimodal_Probabilistic_Learning_of_Human_CSCI535/Group_Project/emotalkingface-main/train.py\", line 204, in <module>\n","  File \"/content/drive/MyDrive/USC_Course/Multimodal_Probabilistic_Learning_of_Human_CSCI535/Group_Project/emotalkingface-main/train.py\", line 199, in train\n","  File \"/content/drive/MyDrive/USC_Course/Multimodal_Probabilistic_Learning_of_Human_CSCI535/Group_Project/emotalkingface-main/trainer.py\", line 346, in pre_train\n","  File \"/usr/local/lib/python3.10/dist-packages/torch/utils/data/dataloader.py\", line 631, in __next__\n","    data = self._next_data()\n","  File \"/usr/local/lib/python3.10/dist-packages/torch/utils/data/dataloader.py\", line 675, in _next_data\n","    data = self._dataset_fetcher.fetch(index)  # may raise StopIteration\n","  File \"/usr/local/lib/python3.10/dist-packages/torch/utils/data/_utils/fetch.py\", line 51, in fetch\n","    data = [self.dataset[idx] for idx in possibly_batched_index]\n","  File \"/usr/local/lib/python3.10/dist-packages/torch/utils/data/_utils/fetch.py\", line 51, in <listcomp>\n","    data = [self.dataset[idx] for idx in possibly_batched_index]\n","  File \"/content/drive/MyDrive/USC_Course/Multimodal_Probabilistic_Learning_of_Human_CSCI535/Group_Project/emotalkingface-main/datagen.py\", line 135, in __getitem__\n","  File \"/usr/local/lib/python3.10/dist-packages/h5py/_hl/files.py\", line 567, in __init__\n","    fid = make_fid(name, mode, userblock_size, fapl, fcpl, swmr=swmr)\n","  File \"/usr/local/lib/python3.10/dist-packages/h5py/_hl/files.py\", line 231, in make_fid\n","    fid = h5f.open(name, flags, fapl=fapl)\n","  File \"h5py/_objects.pyx\", line 54, in h5py._objects.with_phil.wrapper\n","  File \"h5py/_objects.pyx\", line 55, in h5py._objects.with_phil.wrapper\n","  File \"h5py/h5f.pyx\", line 106, in h5py.h5f.open\n","OSError: [Errno 107] Unable to open file (unable to open file: name = './train_hdf5_folder/POKffnXeBds_2_2_XX.hdf5', errno = 107, error message = 'Transport endpoint is not connected', flags = 0, o_flags = 0)\n","Exception ignored in atexit callback: <function dump_compile_times at 0x7ac9a92ad990>\n","Traceback (most recent call last):\n","  File \"/usr/local/lib/python3.10/dist-packages/torch/_dynamo/utils.py\", line 302, in dump_compile_times\n","    log.info(compile_times(repr=\"str\", aggregate=True))\n","  File \"/usr/local/lib/python3.10/dist-packages/torch/_dynamo/utils.py\", line 289, in compile_times\n","    out += tabulate(rows, headers=(\"Function\", \"Runtimes (s)\"))\n","  File \"/usr/local/lib/python3.10/dist-packages/torch/_dynamo/utils.py\", line 114, in tabulate\n","    import tabulate\n","  File \"<frozen importlib._bootstrap>\", line 1027, in _find_and_load\n","  File \"<frozen importlib._bootstrap>\", line 1002, in _find_and_load_unlocked\n","  File \"<frozen importlib._bootstrap>\", line 945, in _find_spec\n","  File \"<frozen importlib._bootstrap_external>\", line 1439, in find_spec\n","  File \"<frozen importlib._bootstrap_external>\", line 1411, in _get_spec\n","  File \"<frozen importlib._bootstrap_external>\", line 1548, in find_spec\n","  File \"<frozen importlib._bootstrap_external>\", line 1591, in _fill_cache\n","OSError: [Errno 107] Transport endpoint is not connected: '/content/drive/MyDrive/USC_Course/Multimodal_Probabilistic_Learning_of_Human_CSCI535/Group_Project/emotalkingface-main'\n"]}]},{"cell_type":"code","source":["!python train.py -i ./train_hdf5_folder/ -v ./val_hdf5_folder/ -o ./models/pre_gen/ --lr_g 1e-4"],"metadata":{"colab":{"base_uri":"https://localhost:8080/"},"id":"wI3IdKztzn36","executionInfo":{"status":"ok","timestamp":1713672775599,"user_tz":420,"elapsed":134012,"user":{"displayName":"Yaqi Hu","userId":"16505542820787683035"}},"outputId":"75358ba4-8f54-43e3-d15f-29dbd6cabea3"},"execution_count":null,"outputs":[{"output_type":"stream","name":"stdout","text":["2024-04-21 04:10:48.143398: E external/local_xla/xla/stream_executor/cuda/cuda_dnn.cc:9261] Unable to register cuDNN factory: Attempting to register factory for plugin cuDNN when one has already been registered\n","2024-04-21 04:10:48.143458: E external/local_xla/xla/stream_executor/cuda/cuda_fft.cc:607] Unable to register cuFFT factory: Attempting to register factory for plugin cuFFT when one has already been registered\n","2024-04-21 04:10:48.145083: E external/local_xla/xla/stream_executor/cuda/cuda_blas.cc:1515] Unable to register cuBLAS factory: Attempting to register factory for plugin cuBLAS when one has already been registered\n","2024-04-21 04:10:49.387564: W tensorflow/compiler/tf2tensorrt/utils/py_utils.cc:38] TF-TRT Warning: Could not find TensorRT\n","Cuda device available:  True\n","Num files:  1757\n","/usr/local/lib/python3.10/dist-packages/albumentations/augmentations/transforms.py:1258: FutureWarning: This class has been deprecated. Please use RandomBrightnessContrast\n","  warnings.warn(\n","/usr/local/lib/python3.10/dist-packages/albumentations/augmentations/transforms.py:1284: FutureWarning: RandomContrast has been deprecated. Please use RandomBrightnessContrast\n","  warnings.warn(\n","Num files:  441\n","/usr/local/lib/python3.10/dist-packages/torchvision/models/_utils.py:208: UserWarning: The parameter 'pretrained' is deprecated since 0.13 and may be removed in the future, please use 'weights' instead.\n","  warnings.warn(\n","/usr/local/lib/python3.10/dist-packages/torchvision/models/_utils.py:223: UserWarning: Arguments other than a weight enum or `None` for 'weights' are deprecated since 0.13 and may be removed in the future. The current behavior is equivalent to passing `weights=VGG19_Weights.IMAGENET1K_V1`. You can also use `weights=VGG19_Weights.DEFAULT` to get the most up-to-date weights.\n","  warnings.warn(msg)\n","  0% 0/1000 [00:00<?, ?it/s]\n","  0% 0/219 [00:00<?, ?it/s]\u001b[ANetworks has been saved to inter\n","\n","  0% 1/219 [00:06<24:38,  6.78s/it]\u001b[A\n","  1% 2/219 [00:08<13:20,  3.69s/it]\u001b[A\n","  1% 3/219 [00:38<56:02, 15.57s/it]\u001b[A\n","  2% 4/219 [00:38<35:03,  9.78s/it]\u001b[A\n","  2% 5/219 [00:41<25:57,  7.28s/it]\u001b[A\n","  3% 6/219 [00:43<18:44,  5.28s/it]\u001b[A\n","  3% 7/219 [00:47<17:18,  4.90s/it]\u001b[A\n","  4% 8/219 [00:48<12:58,  3.69s/it]\u001b[A\n","  4% 9/219 [00:51<12:12,  3.49s/it]\u001b[A\n","  5% 10/219 [00:52<09:53,  2.84s/it]\u001b[A\n","  5% 11/219 [00:55<09:49,  2.83s/it]\u001b[A\n","  5% 12/219 [00:57<08:26,  2.45s/it]\u001b[A\n","  6% 13/219 [01:00<08:50,  2.58s/it]\u001b[A\n","  6% 14/219 [01:01<07:36,  2.23s/it]\u001b[A\n","  7% 15/219 [01:04<08:10,  2.40s/it]\u001b[A\n","  7% 16/219 [01:04<06:18,  1.87s/it]\u001b[A\n","  8% 17/219 [01:07<07:04,  2.10s/it]\u001b[A\n","  8% 18/219 [01:08<06:01,  1.80s/it]\u001b[A\n","  9% 19/219 [01:11<06:48,  2.04s/it]\u001b[A\n","  9% 20/219 [01:12<05:45,  1.74s/it]\u001b[A\n"," 10% 21/219 [01:15<07:02,  2.13s/it]\u001b[A\n"," 10% 22/219 [01:16<05:35,  1.70s/it]\u001b[A\n"," 11% 23/219 [01:18<06:22,  1.95s/it]\u001b[A\n"," 11% 24/219 [01:19<05:04,  1.56s/it]\u001b[A\n"," 11% 25/219 [01:22<06:26,  1.99s/it]\u001b[A\n"," 12% 26/219 [01:22<05:08,  1.60s/it]\u001b[A\n"," 12% 27/219 [01:25<05:59,  1.87s/it]\u001b[A\n"," 13% 28/219 [01:26<05:10,  1.63s/it]\u001b[A\n"," 13% 29/219 [01:29<06:18,  1.99s/it]\u001b[A\n"," 14% 30/219 [01:30<05:29,  1.75s/it]\u001b[A\n"," 14% 31/219 [01:33<06:18,  2.01s/it]\u001b[A\n"," 15% 32/219 [01:33<05:01,  1.61s/it]\u001b[A\n"," 15% 33/219 [01:36<05:52,  1.90s/it]\u001b[A\n"," 16% 34/219 [01:37<04:41,  1.52s/it]\u001b[A\n"," 16% 35/219 [01:39<05:40,  1.85s/it]\u001b[A\n"," 16% 36/219 [01:40<04:45,  1.56s/it]\u001b[A\n"," 17% 37/219 [01:43<05:48,  1.92s/it]\u001b[A\n"," 17% 38/219 [01:43<04:41,  1.56s/it]\u001b[A\n"," 18% 39/219 [01:46<05:31,  1.84s/it]\u001b[A\n"," 18% 40/219 [01:47<04:30,  1.51s/it]\u001b[A\n"," 19% 41/219 [01:49<05:28,  1.84s/it]\u001b[A\n"," 19% 42/219 [01:50<04:22,  1.48s/it]\u001b[A\n"," 20% 43/219 [01:53<05:19,  1.81s/it]\u001b[A\n"," 20% 44/219 [01:54<04:36,  1.58s/it]\u001b[A\n"," 21% 45/219 [01:56<05:40,  1.96s/it]\u001b[A\n"," 21% 46/219 [01:57<04:33,  1.58s/it]\u001b[A\n"," 21% 47/219 [02:00<07:21,  2.57s/it]\n","  0% 0/1000 [02:00<?, ?it/s]\n","Traceback (most recent call last):\n","  File \"/content/drive/MyDrive/USC_Course/Multimodal_Probabilistic_Learning_of_Human_CSCI535/Group_Project/emotalkingface-main/train.py\", line 204, in <module>\n","    train()\n","  File \"/content/drive/MyDrive/USC_Course/Multimodal_Probabilistic_Learning_of_Human_CSCI535/Group_Project/emotalkingface-main/train.py\", line 201, in train\n","    tface_trainer.train()\n","  File \"/content/drive/MyDrive/USC_Course/Multimodal_Probabilistic_Learning_of_Human_CSCI535/Group_Project/emotalkingface-main/trainer.py\", line 303, in train\n","    speech, video, mrm, emotion = [d.float().to(self.args.device) for d in next(diterator)]\n","  File \"/usr/local/lib/python3.10/dist-packages/torch/utils/data/dataloader.py\", line 631, in __next__\n","    data = self._next_data()\n","  File \"/usr/local/lib/python3.10/dist-packages/torch/utils/data/dataloader.py\", line 675, in _next_data\n","    data = self._dataset_fetcher.fetch(index)  # may raise StopIteration\n","  File \"/usr/local/lib/python3.10/dist-packages/torch/utils/data/_utils/fetch.py\", line 51, in fetch\n","    data = [self.dataset[idx] for idx in possibly_batched_index]\n","  File \"/usr/local/lib/python3.10/dist-packages/torch/utils/data/_utils/fetch.py\", line 51, in <listcomp>\n","    data = [self.dataset[idx] for idx in possibly_batched_index]\n","  File \"/content/drive/MyDrive/USC_Course/Multimodal_Probabilistic_Learning_of_Human_CSCI535/Group_Project/emotalkingface-main/datagen.py\", line 135, in __getitem__\n","    dset = h5py.File(os.path.join(*filename), 'r')\n","  File \"/usr/local/lib/python3.10/dist-packages/h5py/_hl/files.py\", line 567, in __init__\n","    fid = make_fid(name, mode, userblock_size, fapl, fcpl, swmr=swmr)\n","  File \"/usr/local/lib/python3.10/dist-packages/h5py/_hl/files.py\", line 231, in make_fid\n","    fid = h5f.open(name, flags, fapl=fapl)\n","  File \"h5py/_objects.pyx\", line 54, in h5py._objects.with_phil.wrapper\n","  File \"h5py/_objects.pyx\", line 55, in h5py._objects.with_phil.wrapper\n","  File \"h5py/h5f.pyx\", line 106, in h5py.h5f.open\n","OSError: Unable to open file (truncated file: eof = 96, sblock->base_addr = 0, stored_eof = 2048)\n"]}]},{"cell_type":"code","source":["!python train.py -i ./train_hdf5_folder/ -v ./val_hdf5_folder/ -o ./models/tface_emo/ -m ./models/pre_gen/inter/ -mde ./models/mde/inter/ --disc_frame 0.01 --disc_emo 0.001"],"metadata":{"colab":{"base_uri":"https://localhost:8080/"},"id":"xazYLLTqzsAs","executionInfo":{"status":"ok","timestamp":1713673593165,"user_tz":420,"elapsed":347163,"user":{"displayName":"Yaqi Hu","userId":"16505542820787683035"}},"outputId":"8eedb04b-e567-4efa-efad-211d8d51c433"},"execution_count":null,"outputs":[{"output_type":"stream","name":"stdout","text":["2024-04-21 04:21:00.260229: E external/local_xla/xla/stream_executor/cuda/cuda_dnn.cc:9261] Unable to register cuDNN factory: Attempting to register factory for plugin cuDNN when one has already been registered\n","2024-04-21 04:21:00.260311: E external/local_xla/xla/stream_executor/cuda/cuda_fft.cc:607] Unable to register cuFFT factory: Attempting to register factory for plugin cuFFT when one has already been registered\n","2024-04-21 04:21:00.262226: E external/local_xla/xla/stream_executor/cuda/cuda_blas.cc:1515] Unable to register cuBLAS factory: Attempting to register factory for plugin cuBLAS when one has already been registered\n","2024-04-21 04:21:01.305895: W tensorflow/compiler/tf2tensorrt/utils/py_utils.cc:38] TF-TRT Warning: Could not find TensorRT\n","Cuda device available:  True\n","Num files:  1757\n","/usr/local/lib/python3.10/dist-packages/albumentations/augmentations/transforms.py:1258: FutureWarning: This class has been deprecated. Please use RandomBrightnessContrast\n","  warnings.warn(\n","/usr/local/lib/python3.10/dist-packages/albumentations/augmentations/transforms.py:1284: FutureWarning: RandomContrast has been deprecated. Please use RandomBrightnessContrast\n","  warnings.warn(\n","Num files:  441\n","Generator loaded...\n","Disc emo loaded...\n","/usr/local/lib/python3.10/dist-packages/torchvision/models/_utils.py:208: UserWarning: The parameter 'pretrained' is deprecated since 0.13 and may be removed in the future, please use 'weights' instead.\n","  warnings.warn(\n","/usr/local/lib/python3.10/dist-packages/torchvision/models/_utils.py:223: UserWarning: Arguments other than a weight enum or `None` for 'weights' are deprecated since 0.13 and may be removed in the future. The current behavior is equivalent to passing `weights=VGG19_Weights.IMAGENET1K_V1`. You can also use `weights=VGG19_Weights.DEFAULT` to get the most up-to-date weights.\n","  warnings.warn(msg)\n","Downloading: \"https://download.pytorch.org/models/vgg19-dcbb9e9d.pth\" to /root/.cache/torch/hub/checkpoints/vgg19-dcbb9e9d.pth\n","100% 548M/548M [00:06<00:00, 90.7MB/s]\n","  0% 0/1000 [00:00<?, ?it/s]\n","  0% 0/219 [00:00<?, ?it/s]\u001b[ANetworks has been saved to inter\n","\n","  0% 1/219 [00:27<1:38:14, 27.04s/it]\u001b[A\n","  1% 2/219 [00:38<1:05:19, 18.06s/it]\u001b[A\n","  1% 3/219 [04:23<6:45:05, 112.52s/it]\u001b[A\n","  2% 4/219 [04:25<4:05:56, 68.63s/it] \u001b[A\n","  2% 5/219 [04:28<2:40:40, 45.05s/it]\u001b[A\n","  3% 6/219 [04:29<1:47:00, 30.14s/it]\u001b[A\n","  3% 7/219 [04:30<1:12:44, 20.59s/it]\u001b[A\n","  4% 8/219 [04:31<50:09, 14.26s/it]  \u001b[A\n","  4% 9/219 [04:32<36:13, 10.35s/it]\u001b[A\n","  5% 10/219 [04:33<25:37,  7.36s/it]\u001b[A\n","  5% 11/219 [04:36<1:27:12, 25.16s/it]\n","  0% 0/1000 [04:36<?, ?it/s]\n","Traceback (most recent call last):\n","  File \"/content/drive/MyDrive/USC_Course/Multimodal_Probabilistic_Learning_of_Human_CSCI535/Group_Project/emotalkingface-main/train.py\", line 204, in <module>\n","    train()\n","  File \"/content/drive/MyDrive/USC_Course/Multimodal_Probabilistic_Learning_of_Human_CSCI535/Group_Project/emotalkingface-main/train.py\", line 201, in train\n","    tface_trainer.train()\n","  File \"/content/drive/MyDrive/USC_Course/Multimodal_Probabilistic_Learning_of_Human_CSCI535/Group_Project/emotalkingface-main/trainer.py\", line 303, in train\n","    speech, video, mrm, emotion = [d.float().to(self.args.device) for d in next(diterator)]\n","  File \"/usr/local/lib/python3.10/dist-packages/torch/utils/data/dataloader.py\", line 631, in __next__\n","    data = self._next_data()\n","  File \"/usr/local/lib/python3.10/dist-packages/torch/utils/data/dataloader.py\", line 675, in _next_data\n","    data = self._dataset_fetcher.fetch(index)  # may raise StopIteration\n","  File \"/usr/local/lib/python3.10/dist-packages/torch/utils/data/_utils/fetch.py\", line 51, in fetch\n","    data = [self.dataset[idx] for idx in possibly_batched_index]\n","  File \"/usr/local/lib/python3.10/dist-packages/torch/utils/data/_utils/fetch.py\", line 51, in <listcomp>\n","    data = [self.dataset[idx] for idx in possibly_batched_index]\n","  File \"/content/drive/MyDrive/USC_Course/Multimodal_Probabilistic_Learning_of_Human_CSCI535/Group_Project/emotalkingface-main/datagen.py\", line 135, in __getitem__\n","    dset = h5py.File(os.path.join(*filename), 'r')\n","  File \"/usr/local/lib/python3.10/dist-packages/h5py/_hl/files.py\", line 567, in __init__\n","    fid = make_fid(name, mode, userblock_size, fapl, fcpl, swmr=swmr)\n","  File \"/usr/local/lib/python3.10/dist-packages/h5py/_hl/files.py\", line 231, in make_fid\n","    fid = h5f.open(name, flags, fapl=fapl)\n","  File \"h5py/_objects.pyx\", line 54, in h5py._objects.with_phil.wrapper\n","  File \"h5py/_objects.pyx\", line 55, in h5py._objects.with_phil.wrapper\n","  File \"h5py/h5f.pyx\", line 106, in h5py.h5f.open\n","OSError: Unable to open file (truncated file: eof = 96, sblock->base_addr = 0, stored_eof = 2048)\n"]}]}]}